<svg xmlns="http://www.w3.org/2000/svg" width="512" height="512" viewBox="0 0 512 512">
  <defs>
    <linearGradient id="bgGrad" x1="0%" y1="0%" x2="100%" y2="100%">
      <stop offset="0%" style="stop-color:#3b82f6"/>
      <stop offset="100%" style="stop-color:#1d4ed8"/>
    </linearGradient>
    <filter id="shadow" x="-20%" y="-20%" width="140%" height="140%">
      <feDropShadow dx="0" dy="4" stdDeviation="8" flood-opacity="0.3"/>
    </filter>
  </defs>
  <!-- Background circle -->
  <circle cx="256" cy="256" r="240" fill="url(#bgGrad)"/>
  <!-- Bookmark icon with shadow -->
  <g filter="url(#shadow)">
    <path d="M144 80 h224 a24 24 0 0 1 24 24 v328 a12 12 0 0 1 -19.2 9.6 L256 348 l-116.8 93.6 A12 12 0 0 1 120 432 V104 a24 24 0 0 1 24 -24z" 
          fill="white" 
          opacity="0.95"/>
  </g>
  <!-- Inner fold detail -->
  <path d="M144 80 h224 a24 24 0 0 1 24 24 v24 H120 v-24 a24 24 0 0 1 24 -24z" 
        fill="white" 
        opacity="0.7"/>
</svg>

